<svg width="252" height="52" viewBox="0 0 252 52" fill="none" xmlns="http://www.w3.org/2000/svg">
<path fill-rule="evenodd" clip-rule="evenodd" d="M44.658 32.6401C45.2057 38.809 48.4862 45.0784 54.6231 45.9118C57.3261 46.2788 59.9848 46.0282 62.4198 45.067C71.521 41.4743 74.0497 29.3142 68.0678 17.9068C65.5262 13.0599 61.8571 9.12869 57.7793 6.48567C49.7285 1.26752 42.6682 10.2269 43.5166 19.7832L44.658 32.6401Z" fill="#4C7BF7"/>
<path fill-rule="evenodd" clip-rule="evenodd" d="M24.9564 32.6667C25.504 38.8356 28.7845 45.105 34.9214 45.9384C37.6244 46.3055 40.2832 46.0549 42.7181 45.0936C51.8193 41.5009 54.348 29.3408 48.3661 17.9334C45.8245 13.0865 42.1554 9.1553 38.0777 6.51228C30.0269 1.29413 22.9665 10.2535 23.8149 19.8098L24.9564 32.6667Z" fill="#2350D7"/>
<circle cx="19.5" cy="30.5352" r="15.5" fill="#F3B43E"/>
<path d="M104.256 15.1V37.5H100.16V31.26H94.624H94.176L90.016 37.5H85.632L90.432 30.588C88.8747 30.012 87.6693 29.1053 86.816 27.868C85.984 26.6093 85.568 25.0947 85.568 23.324C85.568 21.6173 85.952 20.1453 86.72 18.908C87.488 17.6707 88.576 16.732 89.984 16.092C91.392 15.4307 93.0453 15.1 94.944 15.1H104.256ZM95.072 18.62C93.3653 18.62 92.0533 19.0147 91.136 19.804C90.24 20.5933 89.792 21.7453 89.792 23.26C89.792 24.732 90.2293 25.8733 91.104 26.684C91.9787 27.4733 93.248 27.868 94.912 27.868H100.16V18.62H95.072ZM130.414 15.1V37.5H126.318V18.62H114.702V37.5H110.606V15.1H130.414ZM144.73 20.22C146.5 20.22 148.047 20.5827 149.37 21.308C150.714 22.0333 151.748 23.0573 152.474 24.38C153.22 25.7027 153.594 27.2387 153.594 28.988C153.594 30.716 153.242 32.2413 152.538 33.564C151.834 34.8867 150.842 35.9107 149.562 36.636C148.303 37.3613 146.842 37.724 145.178 37.724C142.81 37.724 140.954 36.9667 139.61 35.452V43.708H135.578V29.02C135.578 27.292 135.962 25.7667 136.73 24.444C137.498 23.1 138.564 22.0653 139.93 21.34C141.316 20.5933 142.916 20.22 144.73 20.22ZM144.57 34.332C146.063 34.332 147.279 33.8413 148.218 32.86C149.156 31.8573 149.626 30.5667 149.626 28.988C149.626 27.4093 149.156 26.1187 148.218 25.116C147.279 24.1133 146.063 23.612 144.57 23.612C143.055 23.612 141.839 24.1027 140.922 25.084C140.004 26.0653 139.546 27.356 139.546 28.956C139.546 30.556 140.004 31.8573 140.922 32.86C141.86 33.8413 143.076 34.332 144.57 34.332ZM165.21 37.724C163.482 37.724 161.925 37.3507 160.538 36.604C159.152 35.8573 158.064 34.8227 157.274 33.5C156.506 32.156 156.122 30.6413 156.122 28.956C156.122 27.2707 156.506 25.7667 157.274 24.444C158.064 23.1213 159.152 22.0867 160.538 21.34C161.925 20.5933 163.482 20.22 165.21 20.22C166.96 20.22 168.528 20.5933 169.914 21.34C171.301 22.0867 172.378 23.1213 173.146 24.444C173.936 25.7667 174.33 27.2707 174.33 28.956C174.33 30.6413 173.936 32.156 173.146 33.5C172.378 34.8227 171.301 35.8573 169.914 36.604C168.528 37.3507 166.96 37.724 165.21 37.724ZM165.21 34.3C166.682 34.3 167.898 33.8093 168.858 32.828C169.818 31.8467 170.298 30.556 170.298 28.956C170.298 27.356 169.818 26.0653 168.858 25.084C167.898 24.1027 166.682 23.612 165.21 23.612C163.738 23.612 162.522 24.1027 161.562 25.084C160.624 26.0653 160.154 27.356 160.154 28.956C160.154 30.556 160.624 31.8467 161.562 32.828C162.522 33.8093 163.738 34.3 165.21 34.3ZM191.402 23.804H182.282V37.5H178.282V20.412H191.402V23.804ZM194.313 20.412H198.313V27.356H206.921V20.412H210.921V37.5H206.921V30.748H198.313V37.5H194.313V20.412ZM223.898 37.724C222.17 37.724 220.612 37.3507 219.226 36.604C217.839 35.8573 216.751 34.8227 215.962 33.5C215.194 32.156 214.81 30.6413 214.81 28.956C214.81 27.2707 215.194 25.7667 215.962 24.444C216.751 23.1213 217.839 22.0867 219.226 21.34C220.612 20.5933 222.17 20.22 223.898 20.22C225.647 20.22 227.215 20.5933 228.602 21.34C229.988 22.0867 231.066 23.1213 231.834 24.444C232.623 25.7667 233.018 27.2707 233.018 28.956C233.018 30.6413 232.623 32.156 231.834 33.5C231.066 34.8227 229.988 35.8573 228.602 36.604C227.215 37.3507 225.647 37.724 223.898 37.724ZM223.898 34.3C225.37 34.3 226.586 33.8093 227.546 32.828C228.506 31.8467 228.986 30.556 228.986 28.956C228.986 27.356 228.506 26.0653 227.546 25.084C226.586 24.1027 225.37 23.612 223.898 23.612C222.426 23.612 221.21 24.1027 220.25 25.084C219.311 26.0653 218.842 27.356 218.842 28.956C218.842 30.556 219.311 31.8467 220.25 32.828C221.21 33.8093 222.426 34.3 223.898 34.3ZM246.927 28.604C247.994 28.9027 248.815 29.3933 249.391 30.076C249.989 30.7373 250.287 31.5373 250.287 32.476C250.287 33.5213 249.935 34.4493 249.231 35.26C248.527 36.0493 247.557 36.668 246.319 37.116C245.082 37.564 243.674 37.788 242.095 37.788C240.773 37.788 239.482 37.6387 238.223 37.34C236.965 37.02 235.823 36.572 234.799 35.996L235.951 33.02C236.783 33.4893 237.722 33.852 238.767 34.108C239.813 34.364 240.858 34.492 241.903 34.492C243.247 34.492 244.293 34.2893 245.039 33.884C245.807 33.4573 246.191 32.8813 246.191 32.156C246.191 31.4947 245.893 30.9827 245.295 30.62C244.719 30.2573 243.898 30.076 242.831 30.076H239.503V27.388H242.511C243.514 27.388 244.293 27.2173 244.847 26.876C245.423 26.5347 245.711 26.0547 245.711 25.436C245.711 24.8173 245.37 24.3267 244.687 23.964C244.005 23.6013 243.066 23.42 241.871 23.42C240.165 23.42 238.362 23.836 236.463 24.668L235.439 21.724C237.679 20.6787 239.941 20.156 242.223 20.156C243.674 20.156 244.975 20.3587 246.127 20.764C247.279 21.148 248.175 21.7027 248.815 22.428C249.477 23.132 249.807 23.9427 249.807 24.86C249.807 25.692 249.551 26.4387 249.039 27.1C248.527 27.74 247.823 28.2413 246.927 28.604Z" fill="#1E1E1E"/>
</svg>
